# xmcd
#
# Track frame offsets: 
#        150
#        19141
#        37460
#        60919
#        72143
#        92359
#        104650
#        124833
#        141221
#        158207
#
# Disc length: 2366 seconds
#
# Revision: 1
# Processed by: cddbd v1.5.2PL0 Copyright (c) Steve Scherf et al.
# Submitted via: ExactAudioCopy v1.0b4
#
DISCID=88093c0a
DTITLE=Jimmy Carpenter - Plays The Blues
DYEAR=2017
DGENRE=Blues
TTITLE0=You Belong To Me
TTITLE1=Too Late
TTITLE2=Jimmy Plays The Blues
TTITLE3=Kid In My Head
TTITLE4=Blues With A Feeling
TTITLE5=Surf Monkey
TTITLE6=Change Is Gonna Come
TTITLE7=Preach
TTITLE8=All Your Love (I Miss Lovin')
TTITLE9=Shotgun
EXTD=
EXTT0=
EXTT1=
EXTT2=
EXTT3=
EXTT4=
EXTT5=
EXTT6=
EXTT7=
EXTT8=
EXTT9=
PLAYORDER=
